{
  "source": "C:\\Users\\Peter\\Desktop\\stuff\\MIUN\\quantitative_research\\video_compression\\videos\\BVI-HD\\BVI-HD_CDVL_videos\\ORIG\\CarpetCircleFast_1920x1080_60fps.mp4",
  "output": "C:\\Users\\Peter\\Desktop\\stuff\\MIUN\\quantitative_research\\video_compression\\compressed_videos\\BVI-HD\\vp9\\3\\CarpetCircleFast_1920x1080_60fps_vp9.webm",
  "codec": "vp9",
  "ok": "Input #0, mov,mp4,m4a,3gp,3g2,mj2, from 'C:\\Users\\Peter\\Desktop\\stuff\\MIUN\\quantitative_research\\video_compression\\videos\\BVI-HD\\BVI-HD_CDVL_videos\\ORIG\\CarpetCircleFast_1920x1080_60fps.mp4':\n  Metadata:\n    major_brand     : isom\n    minor_version   : 512\n    compatible_brands: isomiso2avc1mp41\n    encoder         : Lavf54.28.101\n  Duration: 00:00:05.00, start: 0.000000, bitrate: 324759 kb/s\n  Stream #0:0[0x1](und): Video: h264 (High 4:4:4 Predictive) (avc1 / 0x31637661), yuv420p(progressive), 1920x1080, 324754 kb/s, 60 fps, 60 tbr, 60 tbn (default)\n    Metadata:\n      handler_name    : VideoHandler\n      vendor_id       : [0][0][0][0]\n[out#0/webm @ 000001e3ff780e00] Codec AVOption b:a (set bitrate (in bits/s)) has not been used for any stream. The most likely reason is either wrong type (e.g. a video option with no video streams) or that it is a private option of some decoder which was not actually used for any stream.\nStream mapping:\n  Stream #0:0 -> #0:0 (h264 (native) -> vp9 (libvpx-vp9))\nPress [q] to stop, [?] for help\n[libvpx-vp9 @ 000001e3817f4c00] v1.15.2-100-g40561f514\nOutput #0, webm, to 'C:\\Users\\Peter\\Desktop\\stuff\\MIUN\\quantitative_research\\video_compression\\compressed_videos\\BVI-HD\\vp9\\3\\CarpetCircleFast_1920x1080_60fps_vp9.webm':\n  Metadata:\n    major_brand     : isom\n    minor_version   : 512\n    compatible_brands: isomiso2avc1mp41\n    encoder         : Lavf62.3.100\n  Stream #0:0(und): Video: vp9, yuv420p(tv, progressive), 1920x1080, q=2-31, 3000 kb/s, 60 fps, 1k tbn (default)\n    Metadata:\n      encoder         : Lavc62.11.100 libvpx-vp9\n      handler_name    : VideoHandler\n      vendor_id       : [0][0][0][0]\n    Side data:\n      cpb: bitrate max/min/avg: 0/0/0 buffer size: 3000000 vbv_delay: N/A\nframe=    1 fps=0.0 q=29.0 size=       1KiB time=00:00:00.01 bitrate= 303.8kbits/s speed=0.0325x elapsed=0:00:00.51    \nframe=   10 fps=9.7 q=39.0 size=       1KiB time=00:00:00.16 bitrate=  30.4kbits/s speed=0.161x elapsed=0:00:01.03    \nframe=   17 fps= 11 q=37.0 size=       1KiB time=00:00:00.28 bitrate=  17.9kbits/s speed=0.181x elapsed=0:00:01.56    \nframe=   24 fps= 12 q=29.0 size=       1KiB time=00:00:00.40 bitrate=  12.7kbits/s speed=0.192x elapsed=0:00:02.08    \nframe=   30 fps= 11 q=28.0 size=       1KiB time=00:00:00.50 bitrate=  10.1kbits/s speed=0.191x elapsed=0:00:02.61    \nframe=   36 fps= 11 q=29.0 size=       1KiB time=00:00:00.60 bitrate=   8.4kbits/s speed=0.191x elapsed=0:00:03.13    \nframe=   43 fps= 12 q=29.0 size=       1KiB time=00:00:00.71 bitrate=   7.1kbits/s speed=0.196x elapsed=0:00:03.66    \nframe=   49 fps= 12 q=20.0 size=       1KiB time=00:00:00.81 bitrate=   6.2kbits/s speed=0.195x elapsed=0:00:04.17    \nframe=   55 fps= 12 q=28.0 size=       1KiB time=00:00:00.91 bitrate=   5.5kbits/s speed=0.195x elapsed=0:00:04.70    \nframe=   61 fps= 12 q=26.0 size=       1KiB time=00:00:01.01 bitrate=   5.0kbits/s speed=0.195x elapsed=0:00:05.21    \nframe=   67 fps= 12 q=42.0 size=       1KiB time=00:00:01.11 bitrate=   4.5kbits/s speed=0.195x elapsed=0:00:05.73    \nframe=   72 fps= 12 q=35.0 size=       1KiB time=00:00:01.20 bitrate=   4.2kbits/s speed=0.192x elapsed=0:00:06.24    \nframe=   80 fps= 12 q=33.0 size=       1KiB time=00:00:01.33 bitrate=   3.8kbits/s speed=0.197x elapsed=0:00:06.75    \nframe=   86 fps= 12 q=42.0 size=       1KiB time=00:00:01.43 bitrate=   3.5kbits/s speed=0.197x elapsed=0:00:07.28    \nframe=   94 fps= 12 q=38.0 size=       1KiB time=00:00:01.56 bitrate=   3.2kbits/s speed= 0.2x elapsed=0:00:07.82    \nframe=   99 fps= 12 q=31.0 size=       1KiB time=00:00:01.65 bitrate=   3.1kbits/s speed=0.198x elapsed=0:00:08.34    \nframe=  106 fps= 12 q=45.0 size=       1KiB time=00:00:01.76 bitrate=   2.9kbits/s speed=0.199x elapsed=0:00:08.86    \nframe=  112 fps= 12 q=33.0 size=       1KiB time=00:00:01.86 bitrate=   2.7kbits/s speed=0.199x elapsed=0:00:09.39    \nframe=  118 fps= 12 q=33.0 size=       1KiB time=00:00:01.96 bitrate=   2.6kbits/s speed=0.198x elapsed=0:00:09.92    \nframe=  126 fps= 12 q=33.0 size=       1KiB time=00:00:02.10 bitrate=   2.4kbits/s speed=0.201x elapsed=0:00:10.45    \nframe=  133 fps= 12 q=27.0 size=     768KiB time=00:00:02.21 bitrate=2838.3kbits/s speed=0.202x elapsed=0:00:10.98    \nframe=  140 fps= 12 q=19.0 size=     768KiB time=00:00:02.33 bitrate=2696.3kbits/s speed=0.203x elapsed=0:00:11.51    \nframe=  147 fps= 12 q=36.0 size=     768KiB time=00:00:02.45 bitrate=2567.9kbits/s speed=0.204x elapsed=0:00:12.03    \nframe=  153 fps= 12 q=26.0 size=     768KiB time=00:00:02.55 bitrate=2467.2kbits/s speed=0.203x elapsed=0:00:12.57    \nframe=  161 fps= 12 q=31.0 size=     768KiB time=00:00:02.68 bitrate=2344.6kbits/s speed=0.205x elapsed=0:00:13.10    \nframe=  167 fps= 12 q=29.0 size=     768KiB time=00:00:02.78 bitrate=2260.4kbits/s speed=0.204x elapsed=0:00:13.64    \nframe=  174 fps= 12 q=27.0 size=     768KiB time=00:00:02.90 bitrate=2169.5kbits/s speed=0.205x elapsed=0:00:14.16    \nframe=  180 fps= 12 q=26.0 size=     768KiB time=00:00:03.00 bitrate=2097.2kbits/s speed=0.204x elapsed=0:00:14.68    \nframe=  187 fps= 12 q=29.0 size=     768KiB time=00:00:03.11 bitrate=2018.6kbits/s speed=0.205x elapsed=0:00:15.20    \nframe=  193 fps= 12 q=44.0 size=     768KiB time=00:00:03.21 bitrate=1955.9kbits/s speed=0.204x elapsed=0:00:15.73    \nframe=  199 fps= 12 q=41.0 size=     768KiB time=00:00:03.31 bitrate=1896.9kbits/s speed=0.204x elapsed=0:00:16.23    \nframe=  206 fps= 12 q=33.0 size=     768KiB time=00:00:03.43 bitrate=1832.5kbits/s speed=0.205x elapsed=0:00:16.76    \nframe=  211 fps= 12 q=48.0 size=     768KiB time=00:00:03.51 bitrate=1789.0kbits/s speed=0.203x elapsed=0:00:17.28    \nframe=  218 fps= 12 q=46.0 size=     768KiB time=00:00:03.63 bitrate=1731.6kbits/s speed=0.204x elapsed=0:00:17.79    \nframe=  224 fps= 12 q=23.0 size=     768KiB time=00:00:03.73 bitrate=1685.2kbits/s speed=0.204x elapsed=0:00:18.31    \nframe=  229 fps= 12 q=34.0 size=     768KiB time=00:00:03.81 bitrate=1648.4kbits/s speed=0.203x elapsed=0:00:18.84    \nframe=  235 fps= 12 q=31.0 size=     768KiB time=00:00:03.91 bitrate=1606.3kbits/s speed=0.202x elapsed=0:00:19.37    \nframe=  239 fps= 12 q=27.0 size=     768KiB time=00:00:03.96 bitrate=1586.1kbits/s speed=0.199x elapsed=0:00:19.94    \nframe=  242 fps= 12 q=44.0 size=     768KiB time=00:00:04.03 bitrate=1559.9kbits/s speed=0.196x elapsed=0:00:20.56    \nframe=  246 fps= 12 q=18.0 size=     768KiB time=00:00:04.08 bitrate=1540.8kbits/s speed=0.193x elapsed=0:00:21.17    \nframe=  249 fps= 11 q=27.0 size=     768KiB time=00:00:04.15 bitrate=1516.0kbits/s speed=0.191x elapsed=0:00:21.73    \nframe=  253 fps= 11 q=28.0 size=     768KiB time=00:00:04.21 bitrate=1492.0kbits/s speed=0.189x elapsed=0:00:22.25    \nframe=  256 fps= 11 q=31.0 size=     768KiB time=00:00:04.26 bitrate=1474.6kbits/s speed=0.187x elapsed=0:00:22.77    \nframe=  262 fps= 11 q=30.0 size=    1792KiB time=00:00:04.36 bitrate=3361.8kbits/s speed=0.187x elapsed=0:00:23.30    \nframe=  268 fps= 11 q=31.0 size=    1792KiB time=00:00:04.46 bitrate=3286.6kbits/s speed=0.187x elapsed=0:00:23.85    \nframe=  272 fps= 11 q=32.0 size=    1792KiB time=00:00:04.53 bitrate=3238.2kbits/s speed=0.186x elapsed=0:00:24.43    \nframe=  276 fps= 11 q=30.0 size=    1792KiB time=00:00:04.60 bitrate=3191.3kbits/s speed=0.184x elapsed=0:00:24.99    \nframe=  276 fps= 11 q=30.0 size=    1792KiB time=00:00:04.60 bitrate=3191.3kbits/s speed=0.18x elapsed=0:00:25.51    \nframe=  276 fps= 11 q=30.0 size=    1792KiB time=00:00:04.60 bitrate=3191.3kbits/s speed=0.177x elapsed=0:00:26.04    \nframe=  276 fps= 10 q=30.0 size=    1792KiB time=00:00:04.60 bitrate=3191.3kbits/s speed=0.173x elapsed=0:00:26.57    \nframe=  276 fps= 10 q=30.0 size=    1792KiB time=00:00:04.60 bitrate=3191.3kbits/s speed=0.169x elapsed=0:00:27.15    \nframe=  276 fps=9.9 q=30.0 size=    1792KiB time=00:00:04.60 bitrate=3191.3kbits/s speed=0.166x elapsed=0:00:27.76    \nframe=  276 fps=9.7 q=30.0 size=    1792KiB time=00:00:04.60 bitrate=3191.3kbits/s speed=0.162x elapsed=0:00:28.32    \n[out#0/webm @ 000001e3ff780e00] video:2293KiB audio:0KiB subtitle:0KiB other streams:0KiB global headers:0KiB muxing overhead: 0.122212%\nframe=  300 fps= 11 q=27.0 Lsize=    2296KiB time=00:00:05.00 bitrate=3762.0kbits/s speed=0.176x elapsed=0:00:28.43    \n",
  "seconds": 28.65748906135559,
  "probe_out": {}
}